<svg width="1024" height="300" viewBox="0 0 1024 300" xmlns="http://www.w3.org/2000/svg">
  <style type="text/css">
    .logo-text {
      fill: #212121;
    }

    .text {
      fill: #550D77;
    }

    @media (prefers-color-scheme: dark) {
      .logo-text,
      .text {
        fill: #fff;
      }
    }
  </style>

  <defs>
    <linearGradient x1="100%" y1="0%" x2="0%" y2="100%" id="a">
      <stop stop-color="#4E1166" offset="0%"/>
      <stop stop-color="#7000B4" offset="100%"/>
    </linearGradient>
  </defs>

  <g fill="none" fill-rule="evenodd">
    <g transform="translate(86.989 52)">
      <path d="M202.742715,100 L202.742715,95.488 L192.854715,94.72 L192.854715,70.624 L204.854715,70.624 L220.790715,100 L234.038715,100 L234.038715,95.488 L224.822715,94.432 L211.286715,69.76 C220.406715,67.552 226.262715,60.832 226.262715,50.656 C226.262715,38.272 217.718715,31.648 201.590715,31.648 C193.526715,31.648 184.406715,32.8 177.302715,32.8 L177.302715,37.312 L186.710715,38.08 L186.710715,94.72 L177.302715,95.488 L177.302715,100 L202.742715,100 Z M203.894715,65.248 L192.854715,65.248 L192.854715,37.024 L201.494715,37.024 C212.822715,37.024 219.830715,41.248 219.830715,51.04 C219.830715,60.448 213.686715,65.248 203.894715,65.248 Z M261.406715,101.248 C265.054715,101.248 270.238715,100.576 275.326715,98.368 L274.078715,93.664 C270.718715,94.912 266.494715,95.968 262.366715,95.968 C253.150715,95.968 245.374715,90.784 244.990715,76.768 C253.630715,76.96 269.374715,76.768 275.614715,74.752 C278.014715,61.408 272.542715,50.848 260.062715,50.848 C247.870715,50.848 239.038715,60.736 239.038715,76.096 C239.038715,90.976 247.102715,101.248 261.406715,101.248 Z M245.182715,72.064 C246.334715,61.12 252.286715,55.744 259.582715,55.744 C268.702715,55.744 270.622715,64.192 270.142715,71.584 L245.182715,72.064 Z M308.070715,101.152 C313.062715,101.152 317.766715,100 321.030715,98.56 L319.878715,93.952 C316.806715,95.008 312.486715,95.968 308.742715,95.968 C297.702715,95.968 291.942715,87.904 291.942715,75.808 C291.942715,64.096 297.126715,55.744 307.974715,55.744 C310.182715,55.744 312.390715,56.128 314.886715,56.8 L315.270715,68.128 L319.974715,68.128 L320.934715,54.016 C317.670715,52 312.774715,50.848 307.974715,50.848 C294.246715,50.848 285.990715,60.544 285.990715,76.192 C285.990715,92.032 294.150715,101.152 308.070715,101.152 Z M349.550715,101.152 C355.022715,101.152 360.398715,99.232 365.006715,94.528 L365.486715,100 L379.310715,100 L379.310715,95.68 L370.670715,94.912 L370.670715,50.848 L356.270715,52.768 L356.270715,57.088 L364.910715,57.088 L364.910715,90.112 C360.686715,93.568 355.886715,95.872 350.702715,95.872 C343.214715,95.872 341.390715,91.552 341.390715,84.832 L341.390715,50.848 L326.990715,52.768 L326.990715,57.088 L335.630715,57.088 L335.630715,86.752 C335.630715,96.832 340.814715,101.152 349.550715,101.152 Z M409.558715,100 L409.558715,95.68 L398.710715,94.912 L398.710715,60.832 C402.934715,58.048 409.462715,56.992 415.990715,56.896 L416.182715,50.752 C408.310715,50.848 402.262715,52.576 398.422715,57.568 L398.422715,50.848 L384.310715,52.768 L384.310715,57.088 L392.950715,57.088 L392.950715,94.912 L384.310715,95.68 L384.310715,100 L409.558715,100 Z M446.430715,100 L446.430715,95.68 L435.582715,94.912 L435.582715,60.832 C439.806715,58.048 446.334715,56.992 452.862715,56.896 L453.054715,50.752 C445.182715,50.848 439.134715,52.576 435.294715,57.568 L435.294715,50.848 L421.182715,52.768 L421.182715,57.088 L429.822715,57.088 L429.822715,94.912 L421.182715,95.68 L421.182715,100 L446.430715,100 Z M469.670714,39.712 C472.262714,39.712 473.894714,37.888 473.894714,35.584 C473.894714,33.28 472.262714,31.36 469.670714,31.36 C466.982714,31.36 465.350714,33.28 465.350714,35.584 C465.350714,37.888 466.982714,39.712 469.670714,39.712 Z M481.094714,100 L481.094714,95.68 L472.454714,94.912 L472.454714,50.848 L458.054714,52.768 L458.054714,57.088 L466.694714,57.088 L466.694714,94.912 L458.054714,95.68 L458.054714,100 L481.094714,100 Z M508.174714,100 L508.174714,95.68 L500.494714,95.008 L500.494714,60.64 C504.814714,58.432 509.710714,56.32 514.894714,56.32 C522.670714,56.32 524.494714,60.544 524.494714,67.168 L524.494714,100 L538.894714,100 L538.894714,95.68 L530.254714,94.912 L530.254714,65.248 C530.254714,55.168 525.070714,50.848 516.334714,50.848 C510.382714,50.848 505.006714,53.152 500.206714,56.8 L500.206714,50.848 L486.094714,52.768 L486.094714,57.088 L494.734714,57.088 L494.734714,94.912 L486.094714,95.68 L486.094714,100 L508.174714,100 Z M562.518714,125.152 C576.822714,125.152 586.038714,118.72 586.038714,108.928 C586.038714,101.056 580.662714,95.68 570.966714,95.296 L560.502714,94.912 C556.758714,94.816 554.358714,93.76 553.206714,91.936 C552.630714,90.976 552.342714,89.824 552.342714,88.48 C552.342714,86.464 553.206714,84.832 554.550714,83.296 C556.950714,84.352 559.734714,84.832 562.902714,84.832 C574.326714,84.832 581.910714,78.592 581.910714,68.032 C581.910714,63.04 580.470714,59.008 577.878714,56.128 L587.478714,56.128 L587.478714,50.848 L573.078714,52.672 C570.582714,51.52 567.510714,50.848 563.958714,50.848 C552.630714,50.848 545.142714,57.184 545.142714,67.648 C545.142714,73.888 547.350714,78.688 551.478714,81.664 C548.406714,84.256 546.774714,86.848 546.774714,90.304 C546.774714,93.472 548.310714,96.064 550.806714,97.696 C545.430714,101.248 542.454714,105.184 542.454714,110.848 C542.454714,119.392 550.518714,125.152 562.518714,125.152 Z M563.382714,80.032 C555.894714,80.032 550.902714,75.136 550.902714,67.648 C550.902714,60.448 555.894714,55.456 563.478714,55.648 C571.158714,55.84 576.150714,60.544 576.150714,68.032 C576.150714,75.232 571.062714,80.032 563.382714,80.032 Z M562.902714,120.352 C553.974714,120.352 548.214714,116.416 548.214714,110.176 C548.214714,105.376 550.422714,101.92 554.262714,99.328 C555.318714,99.616 556.374714,99.712 557.622714,99.808 L567.510714,100.192 C569.238714,100.288 570.870714,100.48 572.214714,100.768 C577.782714,102.016 580.278714,104.992 580.278714,109.408 C580.278714,116.128 573.750714,120.352 562.902714,120.352 Z M636.934714,101.152 C653.734714,101.152 674.758714,94.432 674.758714,65.152 C674.758714,37.888 653.926714,31.648 637.318714,31.648 C629.350714,31.648 620.422714,32.8 613.318714,32.8 L613.318714,37.312 L622.726714,38.08 L622.726714,94.816 L613.318714,95.488 L613.318714,100 C621.766714,100 630.502714,101.152 636.934714,101.152 Z M636.934714,95.776 L628.870714,95.776 L628.870714,37.024 L636.934714,37.024 C655.174714,37.024 668.326714,44.992 668.326714,66.592 C668.326714,87.808 655.174714,95.776 636.934714,95.776 Z M698.190714,101.152 C703.278714,101.152 708.942714,98.656 713.454714,95.392 L714.222714,100 L727.566714,100 L727.566714,95.68 L718.926714,94.912 L718.926714,69.184 C718.926714,58.048 716.718714,50.848 704.238714,50.848 C698.190714,50.848 692.910714,52.576 687.150714,54.592 L687.726714,66.784 L692.430714,66.784 L692.910714,57.856 C696.366714,56.896 698.862714,56.32 700.686714,56.032 C702.030714,55.84 702.990714,55.744 703.950714,55.744 C712.102208,55.744 713.234826,61.0783451 713.262194,69.8990278 L713.262714,75.232 L707.982714,75.328 C692.526714,75.712 685.038714,79.744 685.038714,88.768 C685.038714,96.352 690.222714,101.152 698.190714,101.152 Z M699.534714,95.776 C694.350714,95.776 690.894714,93.472 690.894714,88.576 C690.894714,83.584 694.350714,80.8 704.718714,80.32 C705.541571,80.2377143 706.50549,80.2259592 707.48956,80.2242799 L713.262714,80.224 L713.262714,91.36 C709.422714,93.664 703.758714,95.776 699.534714,95.776 Z M750.614714,101.152 C753.878714,101.152 756.950714,100.48 759.926714,99.52 L759.350714,94.816 C756.854714,95.296 753.974714,95.68 751.574714,95.68 C744.182714,95.68 743.222714,91.072 743.222714,86.656 L743.222714,57.184 L758.198714,57.184 L758.198714,51.712 L743.222714,52.192 L743.222714,37.408 L738.518714,38.464 L737.462714,52.384 L729.206714,52.672 L729.206714,57.184 L737.366714,57.184 L737.366714,85.504 C737.366714,97.312 742.934714,101.152 750.614714,101.152 Z M788.254714,101.248 C791.902714,101.248 797.086714,100.576 802.174714,98.368 L800.926714,93.664 C797.566714,94.912 793.342714,95.968 789.214714,95.968 C779.998714,95.968 772.222714,90.784 771.838714,76.768 C780.478714,76.96 796.222714,76.768 802.462714,74.752 C804.862714,61.408 799.390714,50.848 786.910714,50.848 C774.718714,50.848 765.886714,60.736 765.886714,76.096 C765.886714,90.976 773.950714,101.248 788.254714,101.248 Z M772.030714,72.064 C773.182714,61.12 779.134714,55.744 786.430714,55.744 C795.550714,55.744 797.470714,64.192 796.990714,71.584 L772.030714,72.064 Z M829.062714,101.152 C841.062714,101.152 846.246714,93.952 846.246714,87.136 C846.246714,78.784 840.006714,75.232 832.902714,73.024 C824.838714,70.528 819.558714,68.608 819.558714,63.424 C819.558714,58.912 824.262714,55.84 831.078714,55.84 C833.190714,55.84 835.974714,56.032 839.334714,56.8 L839.718714,66.112 L844.134714,66.112 L844.902714,53.92 C842.118714,52.384 836.934714,50.848 831.078714,50.848 C820.518714,50.848 813.990714,56.608 813.990714,63.904 C813.990714,71.2 819.078714,74.464 827.142714,77.056 C834.246714,79.36 840.678714,81.472 840.678714,87.52 C840.678714,92.8 835.878714,95.968 829.062714,95.968 C825.222714,95.968 822.054714,95.488 818.502714,94.24 L818.214714,85.024 L813.702714,85.024 L812.838714,97.216 C816.678714,99.424 823.110714,101.152 829.062714,101.152 Z" class="text" fill-rule="nonzero"/>
      <path d="M19.7713211,3.20761773 C33.0424689,1.06920591 48.4520285,0 66,0 C83.5479722,0 98.9575324,1.069206 112.228681,3.20761801 L112.22868,3.20761915 C120.743888,4.57969506 127.420306,11.2561132 128.792382,19.7713211 C130.930794,33.0424689 132,48.4520285 132,66 C132,83.5479722 130.930794,98.9575324 128.792382,112.228681 L128.792381,112.22868 C127.420305,120.743888 120.743887,127.420306 112.228679,128.792382 C98.9575311,130.930794 83.5479715,132 66,132 C48.4520278,132 33.0424676,130.930794 19.7713193,128.792382 L19.7713195,128.792381 C11.2561116,127.420305 4.57969357,120.743887 3.20761773,112.228679 C1.06920591,98.9575311 0,83.5479715 0,66 C0,48.4520278 1.069206,33.0424676 3.20761801,19.7713193 L3.20761915,19.7713195 C4.57969506,11.2561116 11.2561132,4.57969357 19.7713211,3.20761773 Z" fill="url(#a)"/>
      <path d="M101.17303,59.6162024 L101.172625,71.092 L87.6415566,71.0924184 C77.1436651,71.0924184 68.6302746,79.605809 68.6302746,90.1037005 L68.6296247,99.132 L26.0922449,99.1324049 C23.9098253,99.1324049 22.1406247,97.3632042 22.1406247,95.1807846 L22.1406247,59.6162024 L101.17303,59.6162024 Z M77.4633081,20.1 C79.6457276,20.1 81.4149283,21.8692006 81.4149283,24.0516202 L81.4149283,28.0032405 L97.2214093,28.0032405 C99.4038289,28.0032405 101.17303,29.7724411 101.17303,31.9548607 L101.17303,51.7129619 L22.1406247,51.7129619 L22.1406247,31.9548607 C22.1406247,29.7724411 23.9098253,28.0032405 26.0922449,28.0032405 L41.8987259,28.0032405 L41.8987259,24.0516202 C41.8987259,21.8692006 43.6679265,20.1 45.8503461,20.1 C48.0327657,20.1 49.8019664,21.8692006 49.8019664,24.0516202 L49.8019664,28.0032405 L73.5116878,28.0032405 L73.5116878,24.0516202 C73.5116878,21.8692006 75.2808885,20.1 77.4633081,20.1 Z" fill="#FFF" fill-rule="nonzero"/>
      <path d="M104.317771,79.3572451 L89.7061508,79.3572451 C82.6703299,79.3572451 76.9645468,85.0630281 76.9645468,92.098849 C76.9645468,99.1346699 82.6703299,104.840453 89.7061508,104.840453 C90.6789933,104.840453 91.4890392,104.048817 91.4890392,103.057564 C91.4890392,102.055194 90.7085216,101.274676 89.7061508,101.274676 C84.6340276,101.274676 80.4892799,97.1299283 80.4892799,92.0578051 C80.4892799,86.9856819 84.6340276,82.8409342 89.7061508,82.8409342 L104.276728,82.8409342 C109.348851,82.8409342 113.493598,86.9856819 113.493598,92.0578051 L113.489379,92.339572 C113.340662,97.2999928 109.279344,101.31572 104.317771,101.31572 L100.271778,101.315331 L104.297353,97.2910031 C105.005282,96.5830743 105.005282,95.4950483 104.297353,94.7871195 C103.589424,94.0791906 102.501398,94.0791906 101.793469,94.7871195 L94.7339223,101.846667 C94.0259935,102.554595 94.0259935,103.642621 94.7339223,104.35055 L101.752425,111.369053 C102.10047,111.717098 102.527241,111.9 103.004367,111.9 C103.481493,111.9 103.908264,111.717098 104.256309,111.369053 L104.373889,111.240334 C104.961788,110.534437 104.922595,109.531456 104.256309,108.86517 L100.271778,104.880693 L104.317771,104.881497 C111.353592,104.881497 117.059375,99.1757138 117.059375,92.1398929 C117.059375,85.0968165 111.346376,79.3572451 104.317771,79.3572451 Z" fill="#FFF" fill-rule="nonzero"/>
    </g>

    <g transform="translate(461.405 212)" fill-rule="nonzero">
      <path d="M77.7447269,35.4786371 C77.9881017,35.4786371 78.2314765,35.4786371 78.4478096,35.5056787 C81.1249324,35.640887 82.7203894,37.4526771 82.8826393,39.9134667 L82.8826393,39.9134667 L82.8826393,40.5895078 C82.8555976,41.1573824 82.747431,41.7252569 82.5310979,42.3201731 C80.1784749,43.0773391 77.1768524,43.6452136 74.2833964,44.0508383 C74.3104381,44.1590049 74.3645214,44.2671714 74.4186047,44.375338 C74.6890211,46.349378 75.8247701,47.4580855 77.7717685,47.4580855 C77.8799351,47.4580855 77.9881017,47.4310438 78.0962683,47.4310438 C79.0427258,47.3769605 80.1243916,47.1335857 81.151974,46.8361276 L81.151974,46.8361276 L81.3683072,49.1076257 C80.016225,49.6484586 78.6911844,49.9729584 77.4472688,50 L77.4472688,50 L76.7171444,50 C72.9583559,49.8377501 70.8761493,47.3769605 70.8761493,43.7533802 C70.8761493,39.2374256 73.8777718,35.6949703 77.7447269,35.4786371 Z M69.3347756,29.0697674 L66.1168199,47.2958356 L68.3071931,47.5121687 L67.9286101,49.6755003 L62.7095727,49.6755003 L62.844781,47.7014602 C61.3034072,49.2969173 59.951325,50 58.5451595,50 C56.5170362,50 54.4618713,48.5397512 54.4618713,44.835046 C54.4618713,40.3190914 57.5716604,35.4786371 62.4661979,35.4786371 C63.3044889,35.4786371 64.0616549,35.640887 64.7647377,35.9113034 L64.7647377,35.9113034 L65.4407788,32.0984316 L63.1692807,32.0984316 L63.5478637,30.0973499 L69.3347756,29.0697674 Z M91.8604651,35.8031368 L91.4548405,37.9664684 L89.8053002,38.1557599 L91.2925906,46.7550027 L95.8355868,38.1287182 L94.1860465,37.9664684 L94.5916712,35.8031368 L100.919416,35.8031368 L100.513791,37.9664684 L98.9453759,38.1287182 L92.4824229,49.6755003 L88.8588426,49.6755003 L86.4521363,38.1287182 L84.8837209,37.9664684 L85.2623039,35.8031368 L91.8604651,35.8031368 Z M62.6825311,38.0746349 C59.3293672,38.0746349 57.8691184,41.4277988 57.8691184,44.2401298 C57.8691184,46.5927528 58.8967009,47.1606274 59.8702001,47.1606274 C60.789616,47.1606274 61.8171985,46.6197945 63.1692807,45.1865873 L63.1692807,45.1865873 L64.3320714,38.372093 C63.7912385,38.1557599 63.223364,38.0746349 62.6825311,38.0746349 Z M77.96106,37.8312601 C76.3115197,37.8312601 74.6349378,39.5078421 74.2022715,42.0497566 C76.1222282,41.7252569 78.042185,41.3466739 79.7998918,40.8599243 C79.9621417,39.1563007 79.3942672,37.8312601 77.96106,37.8312601 Z M14.5754462,6.19253651 L14.5754462,9.24824229 L12.6014062,9.24824229 C12.8988643,9.81611682 13.0881558,10.4921579 13.0881558,11.3034072 C13.0881558,14.6024878 10.2758248,16.2790698 6.84153597,16.2790698 C6.11141157,16.2790698 5.43537047,16.1979448 4.78637101,16.035695 C4.5970795,16.2790698 4.48891293,16.5494862 4.48891293,16.8469443 C4.48891293,16.9551109 4.51595457,17.0632774 4.57003786,17.1444024 C4.65116279,17.6852353 5.19199567,17.9286101 5.86803678,17.9556517 L5.86803678,17.9556517 L9.11303407,18.0908599 C12.3039481,18.2260681 14.1968632,19.7944835 14.1968632,22.4445646 C14.1968632,25.7166036 11.2763656,27.6906436 6.59816117,27.6906436 C2.24445646,27.6906436 0,25.9599784 0,23.7425635 C0,22.3093564 1.00054083,21.2817739 2.46078962,20.3893997 C1.62249865,19.7944835 1.05462412,18.9021092 1.05462412,17.9015684 C1.05462412,16.7387777 1.8388318,15.8734451 2.78528935,15.2514873 C1.48729043,14.4131963 0.703082747,13.0881558 0.703082747,11.2763656 C0.703082747,7.89616009 3.51541374,6.19253651 6.9226609,6.19253651 C8.16657653,6.19253651 9.27528394,6.40886966 10.2487831,6.86857761 L10.2487831,6.86857761 L14.5754462,6.19253651 Z M4.5970795,21.200649 C4.1644132,21.6873986 3.9210384,22.2552731 3.9210384,22.9583559 C3.9210384,24.2022715 4.89453759,24.9864792 6.70632774,24.9864792 C8.65332612,24.9864792 10.1406165,24.2293131 10.1406165,22.9583559 C10.1406165,22.03894 9.59978367,21.6333153 8.49107626,21.4710654 C8.24770146,21.4440238 8.00432666,21.4169822 7.73391022,21.4169822 L7.73391022,21.4169822 L5.78691184,21.3088156 C5.38128718,21.2817739 5.00270416,21.2276906 4.5970795,21.200649 Z M23.4451055,6.19253651 C28.3937263,6.19253651 29.9891833,10.1406165 29.177934,14.1698215 C27.6095187,14.6565711 23.3098972,14.7106544 20.740941,14.6024878 C21.1195241,16.9551109 22.6608978,17.6581936 24.4726879,17.6581936 C25.7436452,17.6581936 27.2850189,17.3607355 28.3937263,17.0091942 L28.3937263,17.0091942 L28.9345592,19.7944835 C27.7176852,20.3893997 25.6354786,20.9302326 23.6884803,20.9302326 C19.2536506,20.9302326 16.3601947,18.0367766 16.3601947,13.5749054 C16.3601947,8.89670092 19.4159005,6.19253651 23.4451055,6.19253651 Z M63.8723634,6.19253651 C68.8209843,6.19253651 70.4164413,10.1406165 69.605192,14.1698215 C68.0367766,14.6565711 63.7371552,14.7106544 61.168199,14.6024878 C61.546782,16.9551109 63.0881558,17.6581936 64.8999459,17.6581936 C66.1709032,17.6581936 67.7122769,17.3607355 68.8209843,17.0091942 L68.8209843,17.0091942 L69.3618172,19.7944835 C68.1449432,20.3893997 66.0627366,20.9302326 64.1157382,20.9302326 C59.6809086,20.9302326 56.7874527,18.0367766 56.7874527,13.5749054 C56.7874527,8.89670092 59.8431585,6.19253651 63.8723634,6.19253651 Z M37.9394267,6.51703624 L37.9394267,9.24824229 L36.4250946,9.41049216 L38.2909681,16.5224446 L41.2114657,6.51703624 L45.213629,6.51703624 L48.0530016,16.6846944 L50,9.41049216 L48.6208761,9.24824229 L48.6208761,6.51703624 L55.3542455,6.51703624 L55.3542455,9.24824229 L53.7317469,9.4375338 L50.2163332,20.6057328 L45.6462953,20.6057328 L42.9421309,11.0600324 L40.2650081,20.6057328 L35.9383451,20.6057328 L32.3418064,9.4375338 L30.773391,9.24824229 L30.773391,6.51703624 L37.9394267,6.51703624 Z M82.9908058,6.19253651 L82.8555976,10.1676582 C80.9897242,10.1676582 79.4753921,10.3839913 78.2585181,10.8166577 L78.2585181,10.8166577 L78.2585181,17.631152 L81.2060573,17.8745268 L81.2060573,20.6057328 L71.8226068,20.6057328 L71.8226068,17.8745268 L73.9048134,17.6581936 L73.9048134,10.0594916 L71.8226068,10.0594916 L71.8226068,7.32828556 L78.0692266,6.19253651 L78.0692266,8.5181179 C79.3401839,6.94970254 81.233099,6.16549486 82.9908058,6.19253651 L82.9908058,6.19253651 Z M90.9680909,0 L90.9680909,13.3585722 L95.4840454,6.51703624 L100.243375,6.51703624 L100.243375,9.24824229 L97.944835,9.51865873 L95.3217956,12.9259059 L98.9183342,17.6041103 L101.189832,17.8745268 L101.189832,20.6057328 L94.7809627,20.6057328 L94.7809627,19.0102758 L90.9680909,13.8182802 L90.9680909,17.6581936 L91.563007,17.7663602 L91.563007,20.6057328 L84.5051379,20.6057328 L84.5051379,17.8745268 L86.6143862,17.6581936 L86.6143862,3.89399676 L84.5051379,3.89399676 L84.5051379,1.18983234 L90.9680909,0 Z M6.89561925,9.03190914 C5.59762034,9.03190914 4.75932937,9.89724175 4.75932937,11.2763656 C4.75932937,12.6554895 5.59762034,13.5208221 6.86857761,13.5208221 C8.22065982,13.5208221 9.05895078,12.6554895 9.05895078,11.3034072 C9.05895078,9.89724175 8.22065982,9.05895078 6.89561925,9.03190914 Z M23.3639805,9.16711736 C22.2552731,9.16711736 21.0113575,9.87020011 20.6868578,12.1146566 L20.6868578,12.1146566 L25.3109789,12.0605733 C25.5273121,10.6003245 24.9864792,9.16711736 23.3639805,9.16711736 Z M63.7912385,9.16711736 C62.6825311,9.16711736 61.4386155,9.87020011 61.1141157,12.1146566 L61.1141157,12.1146566 L65.7382369,12.0605733 C65.95457,10.6003245 65.4137372,9.16711736 63.7912385,9.16711736 Z" class="logo-text"/>
      <path d="M8.73445105,33.4505138 L8.73424554,42.2385138 L47.944835,42.2390481 L47.944835,45.6192537 L5.35424554,45.6192537 L5.35424554,33.4505138 L8.73445105,33.4505138 Z" fill="#550D77"/>
    </g>
  </g>
</svg>
