<svg width="110" height="110" viewBox="0 0 110 110" xmlns="http://www.w3.org/2000/svg"><defs><linearGradient x1="100%" y1="0%" x2="0%" y2="100%" id="a"><stop stop-color="#4E1166" offset="0%"/><stop stop-color="#7000B4" offset="100%"/></linearGradient></defs><g fill="none" fill-rule="evenodd"><path d="M11.4574574,3.5667525 C23.5938033,1.1889175 38.1079841,0 55,0 C71.8920125,0 86.406191,1.18891703 98.5425354,3.5667511 L98.5425363,3.56674663 C102.532234,4.34843507 105.651559,7.46775934 106.433248,11.4574574 C108.811083,23.5938033 110,38.1079841 110,55 C110,71.8920125 108.811083,86.406191 106.433249,98.5425354 L106.433253,98.5425363 C105.651565,102.532234 102.532241,105.651559 98.5425426,106.433248 C86.4061967,108.811083 71.8920159,110 55,110 C38.1079875,110 23.593809,108.811083 11.4574646,106.433249 L11.4574637,106.433253 C7.46776557,105.651565 4.34844114,102.532241 3.5667525,98.5425426 C1.1889175,86.4061967 0,71.8920159 0,55 C0,38.1079875 1.18891703,23.593809 3.5667511,11.4574646 L3.56674663,11.4574637 C4.34843507,7.46776557 7.46775934,4.34844114 11.4574574,3.5667525 Z" fill="url(#a)"/><path d="M84.3108579,49.6801687 L84.3105205,59.243 L73.0346305,59.243682 C64.2863876,59.243682 57.1918955,66.3381742 57.1918955,75.0864171 L57.1915205,82.61 L21.7435374,82.6103374 C19.9248544,82.6103374 18.4505205,81.1360035 18.4505205,79.3173205 L18.4505205,49.6801687 L84.3108579,49.6801687 Z M38.5016386,16.75 C40.1584929,16.75 41.5016386,18.0931458 41.5016386,19.75 L41.5016386,23.3360337 L61.2597398,23.3360337 L61.2597398,19.75 C61.2597398,18.0931458 62.6028856,16.75 64.2597398,16.75 L64.8457736,16.75 C66.5026278,16.75 67.8457736,18.0931458 67.8457736,19.75 L67.8457736,23.3360337 L81.0178411,23.3360337 C82.8365241,23.3360337 84.3108579,24.8103676 84.3108579,26.6290506 L84.3108579,43.094135 L18.4505205,43.094135 L18.4505205,26.6290506 C18.4505205,24.8103676 19.9248544,23.3360337 21.7435374,23.3360337 L34.9156049,23.3360337 L34.9156049,19.75 C34.9156049,18.0931458 36.2587506,16.75 37.9156049,16.75 L38.5016386,16.75 Z" fill="#FFF" fill-rule="nonzero"/><path d="M86.9314762,66.1310375 L74.7551256,66.1310375 C68.8919416,66.1310375 64.1371223,70.8858568 64.1371223,76.7490408 C64.1371223,82.6122249 68.8919416,87.3670441 74.7551256,87.3670441 C75.5658278,87.3670441 76.240866,86.7073477 76.240866,85.8813037 C76.240866,85.0459947 75.5904346,84.3955634 74.7551256,84.3955634 C70.5283563,84.3955634 67.0743999,80.9416069 67.0743999,76.7148376 C67.0743999,72.4880683 70.5283563,69.0341119 74.7551256,69.0341119 L86.8972729,69.0341119 C91.1240423,69.0341119 94.5779987,72.4880683 94.5779987,76.7148376 L94.5744828,76.9496433 C94.4505514,81.0833273 91.0661203,84.4297666 86.9314762,84.4297666 L83.5598152,84.4294426 L86.9144608,81.0758359 C87.5044015,80.4858952 87.5044015,79.5792069 86.9144608,78.9892662 C86.3245201,78.3993255 85.4178318,78.3993255 84.8278911,78.9892662 L78.9449353,84.8722221 C78.3549945,85.4621628 78.3549945,86.3688511 78.9449353,86.9587918 L84.7936879,92.8075445 C85.0837251,93.0975817 85.4393679,93.25 85.8369728,93.25 C86.2345776,93.25 86.5902204,93.0975817 86.8802576,92.8075445 L86.9782408,92.7002782 C87.468157,92.1120306 87.4354959,91.2762131 86.8802576,90.7209748 L83.5598152,87.4005777 L86.9314762,87.4012474 C92.7946602,87.4012474 97.5494795,82.6464281 97.5494795,76.7832441 C97.5494795,70.9140138 92.7886467,66.1310375 86.9314762,66.1310375 Z" fill="#FFF" fill-rule="nonzero"/></g></svg>